<svg data-v-423bf9ae="" xmlns="http://www.w3.org/2000/svg" viewBox="0 0 389 142" class="iconLeft"><!----><!----><defs data-v-423bf9ae=""><linearGradient data-v-423bf9ae="" gradientTransform="rotate(25)" id="5582cf3a-e27c-41aa-8ef6-7a5e4f0efdb5" x1="0%" y1="0%" x2="100%" y2="0%"><stop data-v-423bf9ae="" offset="0%" style="stop-color: rgb(0, 0, 0); stop-opacity: 1;"></stop><stop data-v-423bf9ae="" offset="100%" style="stop-color: rgb(0, 0, 0); stop-opacity: 1;"></stop></linearGradient></defs><g data-v-423bf9ae="" id="aa3352bd-a3b4-403d-96fc-b1ce56794417" fill="url(#5582cf3a-e27c-41aa-8ef6-7a5e4f0efdb5)" transform="matrix(4.597701082226675,0,0,4.597701082226675,177.49271299616663,25.81245359517878)"><path d="M0.70 13.52L0.70 5.21Q0.70 4.91 0.79 4.65Q0.88 4.38 1.06 4.17Q1.25 3.96 1.52 3.84Q1.79 3.72 2.16 3.72L2.16 3.72L2.46 3.72L6.69 10.18L6.69 3.72L8.54 3.72L8.54 13.52L6.76 13.52L2.55 7.10L2.55 13.52L0.70 13.52ZM9.94 6.29L11.77 6.29L11.77 9.76Q11.77 10.01 11.78 10.30Q11.79 10.58 11.84 10.86Q11.89 11.13 12.01 11.37Q12.12 11.61 12.36 11.77L12.36 11.77Q12.52 11.89 12.72 11.94Q12.92 12.00 13.13 12.00Q13.34 12.00 13.54 11.94Q13.73 11.89 13.90 11.77L13.90 11.77Q14.14 11.62 14.26 11.39Q14.38 11.16 14.43 10.89Q14.48 10.63 14.48 10.35Q14.48 10.07 14.48 9.81L14.48 9.81L14.48 7.73Q14.46 6.97 14.97 6.60Q15.47 6.23 16.28 6.26L16.28 6.26L16.28 9.34Q16.30 10.29 16.22 10.93Q16.14 11.56 15.99 11.93L15.99 11.93Q15.58 12.87 14.84 13.27Q14.10 13.68 13.10 13.68L13.10 13.68Q12.03 13.68 11.26 13.20Q10.49 12.73 10.15 11.68L10.15 11.68Q10.05 11.35 10.00 10.80Q9.94 10.25 9.94 9.59L9.94 9.59L9.94 6.29ZM22.95 13.51L22.95 12.74Q22.43 13.24 21.82 13.48Q21.21 13.71 20.59 13.69Q19.98 13.66 19.40 13.41Q18.83 13.15 18.39 12.66Q17.95 12.18 17.68 11.51Q17.42 10.84 17.42 9.98L17.42 9.98Q17.42 9.16 17.70 8.47Q17.99 7.78 18.47 7.29Q18.96 6.79 19.57 6.52Q20.19 6.26 20.86 6.29L20.86 6.29Q21.56 6.31 21.96 6.58Q22.36 6.85 22.53 7.20Q22.71 7.55 22.70 7.90Q22.69 8.26 22.57 8.48L22.57 8.48Q22.33 8.15 21.90 8.03Q21.48 7.91 21.10 7.91L21.10 7.91Q20.47 7.91 20.04 8.22Q19.61 8.53 19.40 8.99Q19.18 9.45 19.18 9.99Q19.18 10.53 19.39 10.99Q19.60 11.45 20.02 11.76Q20.44 12.07 21.08 12.07L21.08 12.07Q21.63 12.07 21.99 11.82Q22.34 11.58 22.55 11.19Q22.76 10.79 22.86 10.31Q22.95 9.83 22.95 9.35L22.95 9.35L22.95 3.74Q23.77 3.77 24.24 4.19Q24.71 4.61 24.71 5.17L24.71 5.17L24.71 13.51L22.95 13.51ZM29.62 16.34L29.62 16.34Q28.92 16.34 28.27 16.17Q27.62 16.00 27.16 15.66Q26.70 15.32 26.50 14.79Q26.31 14.27 26.52 13.54L26.52 13.54Q26.74 13.79 27.10 14.00Q27.45 14.21 27.85 14.36Q28.25 14.50 28.67 14.59Q29.08 14.67 29.43 14.66L29.43 14.66Q30.07 14.63 30.48 14.45Q30.88 14.27 31.12 13.98Q31.35 13.69 31.43 13.33Q31.51 12.96 31.51 12.57L31.51 12.57Q30.98 13.10 30.36 13.34Q29.74 13.57 29.11 13.55Q28.48 13.52 27.88 13.25Q27.29 12.98 26.83 12.49Q26.38 12.00 26.10 11.30Q25.83 10.60 25.83 9.73L25.83 9.73Q25.83 8.89 26.12 8.20Q26.42 7.52 26.92 7.04Q27.41 6.57 28.05 6.31Q28.69 6.06 29.37 6.09L29.37 6.09Q30.04 6.12 30.45 6.39Q30.86 6.66 31.05 7.02Q31.23 7.38 31.24 7.76Q31.25 8.13 31.12 8.36L31.12 8.36Q31.00 8.19 30.82 8.07Q30.65 7.95 30.44 7.88Q30.24 7.81 30.02 7.78Q29.81 7.76 29.61 7.76L29.61 7.76Q28.97 7.76 28.53 8.06Q28.10 8.37 27.87 8.83Q27.65 9.28 27.64 9.81Q27.64 10.35 27.85 10.80Q28.07 11.26 28.51 11.56Q28.95 11.87 29.61 11.87L29.61 11.87Q30.17 11.87 30.53 11.65Q30.90 11.42 31.12 11.05Q31.33 10.68 31.42 10.21Q31.51 9.74 31.51 9.25L31.51 9.25L31.51 7.04L31.51 6.27L33.33 6.27L33.33 12.71Q33.33 13.54 33.10 14.21Q32.86 14.88 32.39 15.36Q31.92 15.83 31.23 16.09Q30.53 16.34 29.62 16.34ZM35.01 13.52L35.01 7.74Q35.04 7.32 35.19 7.04Q35.34 6.76 35.57 6.59Q35.81 6.43 36.13 6.35Q36.44 6.27 36.82 6.27L36.82 6.27L36.82 13.52L35.01 13.52ZM35.92 3.29L35.92 3.29Q36.40 3.29 36.74 3.64L36.74 3.64Q37.09 3.98 37.09 4.47L37.09 4.47Q37.09 4.96 36.75 5.31L36.75 5.31Q36.55 5.50 36.30 5.58Q36.04 5.66 35.78 5.73Q35.52 5.81 35.30 5.92Q35.08 6.02 35.00 6.26L35.00 6.26Q34.93 6.03 34.85 5.68Q34.78 5.33 34.76 4.96Q34.73 4.58 34.80 4.22Q34.86 3.86 35.10 3.63L35.10 3.63Q35.43 3.29 35.92 3.29ZM42.00 6.10L42.00 6.10Q43.11 6.10 43.97 6.64Q44.83 7.17 45.32 7.99Q45.81 8.82 45.84 9.83Q45.88 10.84 45.33 11.80L45.33 11.80Q44.87 12.60 44.13 13.08Q43.39 13.55 42.55 13.67Q41.71 13.79 40.86 13.53Q40.01 13.27 39.34 12.60L39.34 12.60Q38.58 11.83 38.33 10.82Q38.08 9.81 38.37 8.81L38.37 8.81Q38.50 8.40 38.79 8.13Q39.07 7.87 39.44 7.74Q39.80 7.62 40.19 7.63Q40.59 7.64 40.92 7.79Q41.26 7.94 41.49 8.21Q41.72 8.48 41.76 8.88L41.76 8.88Q41.55 8.72 41.26 8.71Q40.96 8.71 40.69 8.84Q40.42 8.97 40.23 9.25Q40.04 9.52 40.04 9.93L40.04 9.93Q40.04 10.63 40.33 11.09Q40.63 11.55 41.07 11.78Q41.51 12.01 42.02 12.01Q42.53 12.01 42.97 11.77Q43.41 11.54 43.71 11.07Q44.00 10.60 44.00 9.90L44.00 9.90Q44.00 9.35 43.81 8.93Q43.61 8.51 43.28 8.24Q42.95 7.97 42.52 7.86Q42.08 7.76 41.59 7.85L41.59 7.85Q41.38 7.60 41.08 7.46Q40.78 7.31 40.43 7.26Q40.08 7.21 39.73 7.27Q39.38 7.34 39.07 7.52L39.07 7.52Q39.63 6.85 40.38 6.48Q41.12 6.10 42.00 6.10Z"></path></g><defs data-v-423bf9ae=""><linearGradient data-v-423bf9ae="" gradientTransform="rotate(25)" id="faa54461-f7f0-4b6d-a571-c480f0b08b80" x1="0%" y1="0%" x2="100%" y2="0%"><stop data-v-423bf9ae="" offset="0%" style="stop-color: rgb(23, 255, 253); stop-opacity: 1;"></stop><stop data-v-423bf9ae="" offset="100%" style="stop-color: rgb(38, 49, 247); stop-opacity: 1;"></stop></linearGradient></defs><g data-v-423bf9ae="" id="62c4f9b0-9bb4-4e75-ad26-6a6ffd689c3d" transform="matrix(1.2555555555555555,0,0,1.2555555555555555,0.6444444444444457,-8.855555555555554)" stroke="none" fill="url(#faa54461-f7f0-4b6d-a571-c480f0b08b80)"><path d="M8 108.5h44v8H40a2 2 0 000 4h48a2 2 0 000-4H76v-8h44c4.418 0 8-3.574 8-7.982V40.481c0-4.408-3.582-7.981-8-7.981H85v13c0 3.308-2.692 6-6 6h5.099c4.596 0 7.015 3.672 5.4 8.202l-2.707 7.596c-1.614 4.53-2.55 8.202-7.146 8.202H57.137l1.212 4H85a2 2 0 010 4H55.381l-10.908-36H37a2 2 0 010-4h10.441l2.424 8H55c-3.308 0-6-2.692-6-6v-13H8c-4.418 0-8 3.573-8 7.981v60.036c0 4.409 3.582 7.983 8 7.983zm71.25-21c2.209 0 4 1.795 4 4.002 0 2.203-1.791 3.998-4 3.998s-4-1.795-4-3.998a4.003 4.003 0 014-4.002zm-18.167 0c2.21 0 4 1.795 4 4.002a4.002 4.002 0 01-4 3.998c-2.209 0-4-1.795-4-3.998a4.003 4.003 0 014-4.002zM56 108.5h16v8H56v-8z"></path><path d="M73 45.5v-4c0 3.308-2.692 6-6 6s-6-2.692-6-6v4c0 3.308-2.692 6-6 6h24c-3.308 0-6-2.692-6-6z"></path><path d="M65 9.5v32a2 2 0 004 0v-32a2 2 0 00-4 0zM77 21.5v24a2 2 0 004 0v-24a2 2 0 00-4 0zM53 21.5v24a2 2 0 004 0v-24a2 2 0 00-4 0z"></path></g><!----></svg>