<svg data-v-423bf9ae="" xmlns="http://www.w3.org/2000/svg" viewBox="0 0 258 107" class="iconLeft"><!----><!----><!----><g data-v-423bf9ae="" id="96eb47b8-2c59-4600-9bde-381184688d82" fill="#FFFEFE" transform="matrix(4.629629616002596,0,0,4.629629616002596,99.01564669940207,7.920648390073779)"><path d="M2.25 3.72L6.34 3.72L6.34 5.56L2.55 5.56L2.55 7.73L6.34 7.73L6.34 7.73Q6.33 8.05 6.24 8.37L6.24 8.37L6.24 8.37Q6.16 8.69 5.98 8.95L5.98 8.95L5.98 8.95Q5.80 9.20 5.51 9.36L5.51 9.36L5.51 9.36Q5.22 9.52 4.79 9.52L4.79 9.52L2.55 9.52L2.55 13.52L0.70 13.52L0.70 5.38L0.70 5.38Q0.70 4.62 1.04 4.17L1.04 4.17L1.04 4.17Q1.39 3.72 2.25 3.72L2.25 3.72ZM8.02 13.52L8.02 7.74L8.02 7.74Q8.05 7.32 8.20 7.04L8.20 7.04L8.20 7.04Q8.34 6.76 8.58 6.59L8.58 6.59L8.58 6.59Q8.82 6.43 9.13 6.35L9.13 6.35L9.13 6.35Q9.45 6.27 9.83 6.27L9.83 6.27L9.83 13.52L8.02 13.52ZM8.93 3.29L8.93 3.29L8.93 3.29Q9.41 3.29 9.74 3.64L9.74 3.64L9.74 3.64Q10.09 3.98 10.09 4.47L10.09 4.47L10.09 4.47Q10.09 4.96 9.76 5.31L9.76 5.31L9.76 5.31Q9.56 5.50 9.30 5.58L9.30 5.58L9.30 5.58Q9.04 5.66 8.79 5.73L8.79 5.73L8.79 5.73Q8.53 5.81 8.31 5.92L8.31 5.92L8.31 5.92Q8.09 6.02 8.01 6.26L8.01 6.26L8.01 6.26Q7.94 6.03 7.86 5.68L7.86 5.68L7.86 5.68Q7.78 5.33 7.76 4.96L7.76 4.96L7.76 4.96Q7.74 4.58 7.80 4.22L7.80 4.22L7.80 4.22Q7.87 3.86 8.11 3.63L8.11 3.63L8.11 3.63Q8.44 3.29 8.93 3.29ZM13.30 6.27L13.30 7.11L13.30 7.11Q13.41 6.86 13.64 6.68L13.64 6.68L13.64 6.68Q13.87 6.50 14.15 6.37L14.15 6.37L14.15 6.37Q14.43 6.24 14.73 6.17L14.73 6.17L14.73 6.17Q15.02 6.10 15.27 6.09L15.27 6.09L15.27 6.09Q15.81 6.06 16.32 6.24L16.32 6.24L16.32 6.24Q16.84 6.41 17.28 6.85L17.28 6.85L17.28 6.85Q17.91 7.50 17.91 8.74L17.91 8.74L17.91 13.52L16.11 13.52L16.11 13.52Q16.11 13.29 16.12 12.88L16.12 12.88L16.12 12.88Q16.13 12.47 16.13 11.99L16.13 11.99L16.13 11.99Q16.13 11.51 16.13 10.99L16.13 10.99L16.13 10.99Q16.13 10.47 16.11 10.01L16.11 10.01L16.11 10.01Q16.10 9.55 16.07 9.18L16.07 9.18L16.07 9.18Q16.04 8.82 16.00 8.65L16.00 8.65L16.00 8.65Q15.89 8.20 15.57 7.98L15.57 7.98L15.57 7.98Q15.26 7.76 14.90 7.76L14.90 7.76L14.90 7.76Q14.42 7.76 14.15 8.02L14.15 8.02L14.15 8.02Q13.89 8.27 13.89 8.69L13.89 8.69L13.89 8.69Q13.72 8.64 13.55 8.46L13.55 8.46L13.55 8.46Q13.38 8.29 13.30 8.09L13.30 8.09L13.30 8.47L13.30 13.52L11.49 13.52L11.49 6.27L13.30 6.27ZM21.11 6.29L21.11 7.07L21.11 7.07Q21.63 6.55 22.25 6.31L22.25 6.31L22.25 6.31Q22.88 6.08 23.51 6.10L23.51 6.10L23.51 6.10Q24.14 6.13 24.72 6.40L24.72 6.40L24.72 6.40Q25.31 6.66 25.76 7.15L25.76 7.15L25.76 7.15Q26.21 7.64 26.48 8.34L26.48 8.34L26.48 8.34Q26.75 9.03 26.75 9.90L26.75 9.90L26.75 9.90Q26.75 10.74 26.46 11.44L26.46 11.44L26.46 11.44Q26.17 12.14 25.68 12.64L25.68 12.64L25.68 12.64Q25.19 13.15 24.55 13.42L24.55 13.42L24.55 13.42Q23.91 13.69 23.24 13.66L23.24 13.66L23.24 13.66Q22.54 13.64 22.13 13.36L22.13 13.36L22.13 13.36Q21.73 13.09 21.55 12.73L21.55 12.73L21.55 12.73Q21.36 12.38 21.36 12.01L21.36 12.01L21.36 12.01Q21.36 11.63 21.49 11.41L21.49 11.41L21.49 11.41Q21.62 11.58 21.79 11.70L21.79 11.70L21.79 11.70Q21.97 11.82 22.17 11.88L22.17 11.88L22.17 11.88Q22.37 11.94 22.59 11.97L22.59 11.97L22.59 11.97Q22.81 12.00 23.00 12.00L23.00 12.00L23.00 12.00Q23.65 12.00 24.08 11.68L24.08 11.68L24.08 11.68Q24.51 11.37 24.73 10.90L24.73 10.90L24.73 10.90Q24.95 10.43 24.95 9.88L24.95 9.88L24.95 9.88Q24.95 9.32 24.74 8.86L24.74 8.86L24.74 8.86Q24.53 8.39 24.09 8.07L24.09 8.07L24.09 8.07Q23.66 7.76 23.00 7.76L23.00 7.76L23.00 7.76Q22.46 7.76 22.09 8.01L22.09 8.01L22.09 8.01Q21.73 8.26 21.51 8.66L21.51 8.66L21.51 8.66Q21.29 9.06 21.20 9.55L21.20 9.55L21.20 9.55Q21.11 10.04 21.11 10.53L21.11 10.53L21.11 16.25L19.31 16.25L19.31 7.74L19.31 7.74Q19.31 7.38 19.45 7.10L19.45 7.10L19.45 7.10Q19.60 6.82 19.85 6.63L19.85 6.63L19.85 6.63Q20.10 6.44 20.43 6.36L20.43 6.36L20.43 6.36Q20.75 6.27 21.11 6.29L21.11 6.29ZM30.45 16.24L30.45 16.24L30.45 16.24Q29.76 16.24 29.18 16.06L29.18 16.06L29.18 16.06Q28.60 15.88 28.22 15.52L28.22 15.52L28.22 15.52Q27.85 15.16 27.71 14.62L27.71 14.62L27.71 14.62Q27.58 14.07 27.79 13.36L27.79 13.36L27.79 13.36Q27.96 13.66 28.23 13.90L28.23 13.90L28.23 13.90Q28.50 14.13 28.84 14.28L28.84 14.28L28.84 14.28Q29.18 14.43 29.54 14.51L29.54 14.51L29.54 14.51Q29.90 14.59 30.25 14.57L30.25 14.57L30.25 14.57Q31.26 14.53 31.79 14.05L31.79 14.05L31.79 14.05Q32.33 13.57 32.33 12.54L32.33 12.54L32.33 12.54Q32.23 12.81 31.99 13.01L31.99 13.01L31.99 13.01Q31.75 13.20 31.46 13.34L31.46 13.34L31.46 13.34Q31.16 13.47 30.86 13.54L30.86 13.54L30.86 13.54Q30.55 13.61 30.30 13.62L30.30 13.62L30.30 13.62Q29.76 13.65 29.25 13.48L29.25 13.48L29.25 13.48Q28.73 13.31 28.31 12.88L28.31 12.88L28.31 12.88Q27.68 12.24 27.68 11.00L27.68 11.00L27.68 6.26L29.46 6.26L29.46 6.26Q29.46 6.50 29.45 6.90L29.45 6.90L29.45 6.90Q29.44 7.29 29.44 7.78L29.44 7.78L29.44 7.78Q29.44 8.26 29.44 8.77L29.44 8.77L29.44 8.77Q29.44 9.28 29.46 9.74L29.46 9.74L29.46 9.74Q29.47 10.21 29.50 10.56L29.50 10.56L29.50 10.56Q29.53 10.92 29.57 11.09L29.57 11.09L29.57 11.09Q29.68 11.54 29.99 11.76L29.99 11.76L29.99 11.76Q30.30 11.98 30.66 11.98L30.66 11.98L30.66 11.98Q30.90 11.98 31.11 11.91L31.11 11.91L31.11 11.91Q31.32 11.83 31.48 11.69L31.48 11.69L31.48 11.69Q31.64 11.55 31.74 11.38L31.74 11.38L31.74 11.38Q31.84 11.20 31.84 10.99L31.84 10.99L31.84 10.99Q32.19 11.09 32.33 11.48L32.33 11.48L32.33 6.26L34.13 6.26L34.13 12.64L34.13 12.64Q34.13 14.29 33.20 15.27L33.20 15.27L33.20 15.27Q32.27 16.24 30.45 16.24Z"></path></g><defs data-v-423bf9ae=""><linearGradient data-v-423bf9ae="" gradientTransform="rotate(25)" id="231c8904-7fd4-4b27-abc4-a01ee4cc28ad" x1="0%" y1="0%" x2="100%" y2="0%"><stop data-v-423bf9ae="" offset="0%" style="stop-color: rgb(204, 62, 252); stop-opacity: 1;"></stop><stop data-v-423bf9ae="" offset="100%" style="stop-color: rgb(37, 111, 255); stop-opacity: 1;"></stop></linearGradient></defs><g data-v-423bf9ae="" id="12aa0a66-894c-45da-9e29-cbfb9926cc78" transform="matrix(1.0868111504448785,0,0,1.0868111504448785,-13.255261890115804,-0.23894260335429607)" stroke="none" fill="url(#231c8904-7fd4-4b27-abc4-a01ee4cc28ad)"><g clip-rule="evenodd"><path d="M12.983 10.59l17.018 88.223-5.872-59.049 29.021-1.892-.054-9.883L64.549 1 53.622 18.977z"></path><path d="M59.389 54.548l5.16-53.541-8.74 39.716-19.612 1.045 1.57 20.462-7.766 36.583 12.057-39.899z"></path><path d="M62.8 67.182l.549-10.453-15.979 3.755-.032 11.797-17.337 26.532 21.68-27.616zM65.711 62.394l14.841-4.731 1.509-12.532-15.899 2.095zM72.07 44.502l10.988-1.417 1.581-10.278-8.079-.373L64.549 1l8.43 30.967z"></path><path d="M87.413 31.294l1.256-9.506-9.544-2.694L64.549 1l14.483 22.437-.422 7z"></path></g></g><!----></svg>