<svg data-v-423bf9ae="" xmlns="http://www.w3.org/2000/svg" viewBox="0 0 415 90" class="iconLeft"><!----><!----><defs data-v-423bf9ae=""><linearGradient data-v-423bf9ae="" gradientTransform="rotate(25)" id="ef27b929-f08e-4283-962f-c15ab0fe9f85" x1="0%" y1="0%" x2="100%" y2="0%"><stop data-v-423bf9ae="" offset="0%" style="stop-color: rgb(255, 255, 255); stop-opacity: 1;"></stop><stop data-v-423bf9ae="" offset="100%" style="stop-color: rgb(255, 255, 255); stop-opacity: 1;"></stop></linearGradient></defs><g data-v-423bf9ae="" id="c09a37e2-9fa3-4b3b-bc8c-7d59817824f3" fill="url(#ef27b929-f08e-4283-962f-c15ab0fe9f85)" transform="matrix(4.788507683852314,0,0,4.788507683852314,111.34799353694041,-2.813249436186652)"><path d="M0.70 13.52L0.70 5.21Q0.70 4.91 0.79 4.65Q0.88 4.38 1.06 4.17Q1.25 3.96 1.52 3.84Q1.79 3.72 2.16 3.72L2.16 3.72L2.46 3.72L6.69 10.18L6.69 3.72L8.54 3.72L8.54 13.52L6.76 13.52L2.55 7.10L2.55 13.52L0.70 13.52ZM14.88 10.72L14.88 10.72Q14.13 10.92 13.50 10.86Q12.88 10.81 12.48 10.56Q12.08 10.32 11.95 9.91Q11.82 9.49 12.03 8.97L12.03 8.97Q12.46 9.34 13.03 9.37Q13.61 9.41 14.14 9.35L14.14 9.35Q14.59 9.31 14.82 9.16Q15.05 9.00 15.11 8.80Q15.16 8.60 15.06 8.37Q14.97 8.15 14.75 7.97Q14.53 7.78 14.22 7.67Q13.90 7.56 13.52 7.57L13.52 7.57Q13.12 7.60 12.75 7.77Q12.39 7.94 12.11 8.23Q11.83 8.53 11.66 8.92Q11.49 9.31 11.48 9.79L11.48 9.79Q11.47 10.18 11.57 10.56Q11.68 10.93 11.89 11.25Q12.10 11.56 12.39 11.78Q12.68 12.00 13.06 12.05L13.06 12.05Q13.59 12.15 14.15 11.98Q14.71 11.82 15.15 11.37L15.15 11.37L16.62 12.08Q16.04 12.94 15.26 13.31Q14.48 13.68 13.47 13.68L13.47 13.68Q12.53 13.68 11.82 13.35Q11.12 13.02 10.65 12.47Q10.18 11.93 9.95 11.24Q9.72 10.54 9.73 9.82Q9.74 9.10 10.01 8.41Q10.28 7.71 10.78 7.18L10.78 7.18Q11.34 6.58 12.09 6.33Q12.84 6.08 13.62 6.08L13.62 6.08Q14.49 6.08 15.12 6.37Q15.75 6.66 16.14 7.12Q16.53 7.57 16.66 8.13Q16.79 8.68 16.64 9.20Q16.49 9.72 16.06 10.13Q15.62 10.54 14.88 10.72ZM20.47 9.72L17.98 6.29L20.09 6.29L21.52 8.26L22.48 6.93Q22.71 6.61 22.99 6.43Q23.28 6.26 23.61 6.20Q23.94 6.13 24.30 6.16Q24.65 6.19 25.03 6.29L25.03 6.29L22.57 9.69L25.34 13.52L23.23 13.52L21.50 11.16L19.80 13.52L17.71 13.52L20.47 9.72ZM30.04 6.10L30.04 6.10Q31.15 6.10 32.01 6.64Q32.87 7.17 33.36 7.99Q33.85 8.82 33.89 9.83Q33.92 10.84 33.38 11.80L33.38 11.80Q32.91 12.60 32.17 13.08Q31.43 13.55 30.59 13.67Q29.75 13.79 28.90 13.53Q28.06 13.27 27.38 12.60L27.38 12.60Q26.63 11.83 26.38 10.82Q26.12 9.81 26.42 8.81L26.42 8.81Q26.54 8.40 26.83 8.13Q27.12 7.87 27.48 7.74Q27.85 7.62 28.24 7.63Q28.63 7.64 28.97 7.79Q29.30 7.94 29.53 8.21Q29.76 8.48 29.81 8.88L29.81 8.88Q29.60 8.72 29.30 8.71Q29.01 8.71 28.73 8.84Q28.46 8.97 28.27 9.25Q28.08 9.52 28.08 9.93L28.08 9.93Q28.08 10.63 28.38 11.09Q28.67 11.55 29.11 11.78Q29.55 12.01 30.06 12.01Q30.58 12.01 31.02 11.77Q31.46 11.54 31.75 11.07Q32.05 10.60 32.05 9.90L32.05 9.90Q32.05 9.35 31.85 8.93Q31.65 8.51 31.32 8.24Q31.00 7.97 30.56 7.86Q30.13 7.76 29.64 7.85L29.64 7.85Q29.43 7.60 29.13 7.46Q28.83 7.31 28.48 7.26Q28.13 7.21 27.78 7.27Q27.43 7.34 27.12 7.52L27.12 7.52Q27.68 6.85 28.42 6.48Q29.16 6.10 30.04 6.10ZM35.77 6.33L35.77 5.15Q35.77 4.76 35.92 4.49Q36.06 4.21 36.31 4.05Q36.55 3.88 36.88 3.80Q37.20 3.72 37.53 3.72L37.53 3.72L37.53 6.33L39.16 6.33Q39.16 6.61 39.11 6.87Q39.06 7.14 38.92 7.36Q38.78 7.57 38.54 7.71Q38.30 7.84 37.93 7.84L37.93 7.84L37.53 7.84L37.53 11.80Q37.53 12.03 37.70 12.12Q37.87 12.21 38.09 12.20Q38.32 12.19 38.54 12.10Q38.77 12.00 38.86 11.83L38.86 11.83Q39.05 12.29 38.88 12.65Q38.72 13.01 38.38 13.22Q38.04 13.44 37.58 13.50Q37.13 13.57 36.73 13.43Q36.33 13.30 36.05 12.96Q35.77 12.61 35.77 12.03L35.77 12.03L35.77 7.84L34.87 7.84L34.87 6.33L35.77 6.33ZM42.85 16.24L42.85 16.24Q42.17 16.24 41.59 16.06Q41.01 15.88 40.63 15.52Q40.25 15.16 40.12 14.62Q39.98 14.07 40.19 13.36L40.19 13.36Q40.36 13.66 40.64 13.90Q40.91 14.13 41.24 14.28Q41.58 14.43 41.94 14.51Q42.31 14.59 42.66 14.57L42.66 14.57Q43.67 14.53 44.20 14.05Q44.73 13.57 44.73 12.54L44.73 12.54Q44.63 12.81 44.39 13.01Q44.16 13.20 43.86 13.34Q43.57 13.47 43.26 13.54Q42.95 13.61 42.70 13.62L42.70 13.62Q42.17 13.65 41.65 13.48Q41.13 13.31 40.71 12.88L40.71 12.88Q40.08 12.24 40.08 11.00L40.08 11.00L40.08 6.26L41.86 6.26Q41.86 6.50 41.85 6.90Q41.85 7.29 41.85 7.78Q41.85 8.26 41.85 8.77Q41.85 9.28 41.86 9.74Q41.87 10.21 41.90 10.56Q41.93 10.92 41.97 11.09L41.97 11.09Q42.08 11.54 42.39 11.76Q42.70 11.98 43.06 11.98L43.06 11.98Q43.30 11.98 43.51 11.91Q43.72 11.83 43.88 11.69Q44.04 11.55 44.14 11.38Q44.24 11.20 44.24 10.99L44.24 10.99Q44.59 11.09 44.73 11.48L44.73 11.48L44.73 6.26L46.54 6.26L46.54 12.64Q46.54 14.29 45.61 15.27Q44.67 16.24 42.85 16.24ZM49.74 6.29L49.74 7.07Q50.26 6.55 50.88 6.31Q51.51 6.08 52.14 6.10Q52.77 6.13 53.35 6.40Q53.94 6.66 54.39 7.15Q54.84 7.64 55.11 8.34Q55.38 9.03 55.38 9.90L55.38 9.90Q55.38 10.74 55.09 11.44Q54.80 12.14 54.31 12.64Q53.82 13.15 53.18 13.42Q52.54 13.69 51.87 13.66L51.87 13.66Q51.17 13.64 50.76 13.36Q50.36 13.09 50.18 12.73Q49.99 12.38 49.99 12.01Q49.99 11.63 50.12 11.41L50.12 11.41Q50.25 11.58 50.42 11.70Q50.60 11.82 50.80 11.88Q51.00 11.94 51.22 11.97Q51.44 12.00 51.63 12.00L51.63 12.00Q52.28 12.00 52.71 11.68Q53.14 11.37 53.36 10.90Q53.58 10.43 53.58 9.88Q53.58 9.32 53.37 8.86Q53.16 8.39 52.72 8.07Q52.29 7.76 51.63 7.76L51.63 7.76Q51.09 7.76 50.72 8.01Q50.36 8.26 50.14 8.66Q49.92 9.06 49.83 9.55Q49.74 10.04 49.74 10.53L49.74 10.53L49.74 16.25L47.94 16.25L47.94 7.74Q47.94 7.38 48.08 7.10Q48.23 6.82 48.48 6.63Q48.73 6.44 49.06 6.36Q49.38 6.27 49.74 6.29L49.74 6.29ZM61.45 10.72L61.45 10.72Q60.69 10.92 60.07 10.86Q59.44 10.81 59.05 10.56Q58.65 10.32 58.51 9.91Q58.38 9.49 58.59 8.97L58.59 8.97Q59.02 9.34 59.60 9.37Q60.17 9.41 60.70 9.35L60.70 9.35Q61.15 9.31 61.38 9.16Q61.61 9.00 61.67 8.80Q61.73 8.60 61.63 8.37Q61.53 8.15 61.31 7.97Q61.10 7.78 60.78 7.67Q60.47 7.56 60.09 7.57L60.09 7.57Q59.68 7.60 59.32 7.77Q58.95 7.94 58.67 8.23Q58.39 8.53 58.23 8.92Q58.06 9.31 58.04 9.79L58.04 9.79Q58.03 10.18 58.14 10.56Q58.24 10.93 58.45 11.25Q58.66 11.56 58.95 11.78Q59.25 12.00 59.63 12.05L59.63 12.05Q60.16 12.15 60.72 11.98Q61.28 11.82 61.71 11.37L61.71 11.37L63.18 12.08Q62.61 12.94 61.82 13.31Q61.04 13.68 60.03 13.68L60.03 13.68Q59.09 13.68 58.39 13.35Q57.68 13.02 57.21 12.47Q56.74 11.93 56.51 11.24Q56.28 10.54 56.29 9.82Q56.31 9.10 56.57 8.41Q56.84 7.71 57.34 7.18L57.34 7.18Q57.90 6.58 58.65 6.33Q59.40 6.08 60.19 6.08L60.19 6.08Q61.05 6.08 61.68 6.37Q62.31 6.66 62.71 7.12Q63.10 7.57 63.22 8.13Q63.35 8.68 63.20 9.20Q63.06 9.72 62.62 10.13Q62.19 10.54 61.45 10.72Z"></path></g><defs data-v-423bf9ae=""><linearGradient data-v-423bf9ae="" gradientTransform="rotate(25)" id="74433090-6316-47f4-bff3-e47cbfad4a58" x1="0%" y1="0%" x2="100%" y2="0%"><stop data-v-423bf9ae="" offset="0%" style="stop-color: rgb(204, 62, 252); stop-opacity: 1;"></stop><stop data-v-423bf9ae="" offset="100%" style="stop-color: rgb(37, 111, 255); stop-opacity: 1;"></stop></linearGradient></defs><g data-v-423bf9ae="" id="5bae794f-0d88-4872-875e-908dd66964a5" transform="matrix(1.5734319040218916,0,0,1.5734319040218916,-2.466341391374449,-5.225472837552751)" stroke="none" fill="url(#74433090-6316-47f4-bff3-e47cbfad4a58)"><path d="M7 44a5.029 5.029 0 104.2 2.3l5-4.167a4.965 4.965 0 006.23-.515l4.852 2.8A4.933 4.933 0 0027 46a5 5 0 007.8 4.137l4.625 3.855A4.954 4.954 0 0039 56a5.038 5.038 0 101.6-3.64l-4.4-3.66a4.8 4.8 0 00.526-4.263l4.857-2.8A4.983 4.983 0 0049.9 39h2.2a5 5 0 100-2h-2.2a5.016 5.016 0 00-3.9-3.9v-5.2a5 5 0 003.146-7.69l5.82-6.651a5.067 5.067 0 10-1.627-1.179l-5.628 6.432A4.949 4.949 0 0041 20.034l-4.273-2.467A4.937 4.937 0 0037 16a5 5 0 00-10 0 4.933 4.933 0 00.279 1.576l-4.27 2.466a4.96 4.96 0 00-6.762-1.209l-5.08-5.08a5.015 5.015 0 10-1.414 1.414l5.08 5.08A4.989 4.989 0 0018.02 27.9v5.2a4.98 4.98 0 00-3.22 7.6l-5 4.167A4.969 4.969 0 007 44zm50-9a3 3 0 11-3 3 3 3 0 013-3zM7 52a3 3 0 113-3 3 3 0 01-3 3zm25-3a3 3 0 113-3 3 3 0 01-3 3zm12 4a3 3 0 11-3 3 3 3 0 013-3zm4-15a3 3 0 11-3-3 3 3 0 013 3zm9-32a3 3 0 11-3 3 3 3 0 013-3zM45 20a3 3 0 11-3 3 3 3 0 013-3zm-13-7a3 3 0 11-3 3 3 3 0 013-3zm-3.72 6.308a4.935 4.935 0 007.446-.007l4.42 2.551A4.938 4.938 0 0040 23a5.009 5.009 0 004 4.9v5.2a5.009 5.009 0 00-4 4.9 4.953 4.953 0 00.419 1.99l-4.693 2.71a4.934 4.934 0 00-7.446-.008l-4.694-2.71a4.989 4.989 0 00-3.566-6.876v-5.212a4.946 4.946 0 003.837-6.032zM7 14a3 3 0 113-3 3 3 0 01-3 3zm9 9a3 3 0 113 3 3 3 0 01-3-3zm3 12a3 3 0 11-3 3 3 3 0 013-3z"></path></g><!----></svg>